<?xml version="1.0" encoding="UTF-8"?>
<svg xmlns="http://www.w3.org/2000/svg" xmlns:xlink="http://www.w3.org/1999/xlink" width="25px" height="25px" viewBox="0 0 25 25" version="1.1">
<g id="surface1">
<path style=" stroke:none;fill-rule:nonzero;fill:rgb(0%,0%,0%);fill-opacity:1;" d="M 4.167969 12.5 C 4.167969 13.652344 3.234375 14.582031 2.082031 14.582031 C 0.933594 14.582031 0 13.652344 0 12.5 C 0 11.347656 0.933594 10.417969 2.082031 10.417969 C 3.234375 10.417969 4.167969 11.347656 4.167969 12.5 Z M 4.167969 12.5 "/>
<path style=" stroke:none;fill-rule:nonzero;fill:rgb(0%,0%,0%);fill-opacity:1;" d="M 14.582031 12.5 C 14.582031 13.652344 13.652344 14.582031 12.5 14.582031 C 11.347656 14.582031 10.417969 13.652344 10.417969 12.5 C 10.417969 11.347656 11.347656 10.417969 12.5 10.417969 C 13.652344 10.417969 14.582031 11.347656 14.582031 12.5 Z M 14.582031 12.5 "/>
<path style=" stroke:none;fill-rule:nonzero;fill:rgb(0%,0%,0%);fill-opacity:1;" d="M 25 12.5 C 25 13.652344 24.066406 14.582031 22.917969 14.582031 C 21.765625 14.582031 20.832031 13.652344 20.832031 12.5 C 20.832031 11.347656 21.765625 10.417969 22.917969 10.417969 C 24.066406 10.417969 25 11.347656 25 12.5 Z M 25 12.5 "/>
</g>
</svg>
