<?xml version="1.0" encoding="UTF-8"?>
<svg xmlns="http://www.w3.org/2000/svg" xmlns:xlink="http://www.w3.org/1999/xlink" width="25px" height="25px" viewBox="0 0 25 25" version="1.1">
<g id="surface1">
<path style=" stroke:none;fill-rule:nonzero;fill:rgb(0%,0%,0%);fill-opacity:1;" d="M 11.042969 13.238281 C 10.84375 13.042969 10.734375 12.777344 10.734375 12.5 C 10.734375 12.222656 10.84375 11.957031 11.042969 11.761719 L 15.824219 6.988281 C 16.019531 6.792969 16.132812 6.527344 16.132812 6.25 C 16.132812 5.972656 16.019531 5.707031 15.824219 5.511719 C 15.417969 5.105469 14.761719 5.105469 14.355469 5.511719 L 9.574219 10.292969 C 8.355469 11.511719 8.355469 13.488281 9.574219 14.707031 L 14.355469 19.488281 C 14.546875 19.683594 14.808594 19.789062 15.082031 19.792969 C 15.359375 19.792969 15.625 19.683594 15.824219 19.488281 C 16.019531 19.292969 16.132812 19.027344 16.132812 18.75 C 16.132812 18.472656 16.019531 18.207031 15.824219 18.011719 Z M 11.042969 13.238281 "/>
</g>
</svg>
