<?xml version="1.0" encoding="UTF-8"?>
<svg xmlns="http://www.w3.org/2000/svg" xmlns:xlink="http://www.w3.org/1999/xlink" width="25px" height="25px" viewBox="0 0 25 25" version="1.1">
<g id="surface1">
<path style=" stroke:none;fill-rule:nonzero;fill:rgb(0%,0%,0%);fill-opacity:1;" d="M 19.433594 0.96875 L 6.734375 13.667969 C 5.753906 14.644531 5.203125 15.96875 5.207031 17.351562 L 5.207031 18.75 C 5.207031 19.324219 5.675781 19.792969 6.25 19.792969 L 7.648438 19.792969 C 9.03125 19.796875 10.355469 19.246094 11.332031 18.265625 L 24.03125 5.566406 C 25.296875 4.296875 25.296875 2.238281 24.03125 0.96875 C 22.746094 -0.261719 20.71875 -0.261719 19.433594 0.96875 Z M 22.558594 4.09375 L 9.859375 16.792969 C 9.269531 17.378906 8.476562 17.707031 7.648438 17.707031 L 7.292969 17.707031 L 7.292969 17.351562 C 7.292969 16.523438 7.621094 15.730469 8.207031 15.140625 L 20.90625 2.441406 C 21.367188 2 22.097656 2 22.558594 2.441406 C 23.011719 2.898438 23.011719 3.636719 22.558594 4.09375 Z M 22.558594 4.09375 "/>
<path style=" stroke:none;fill-rule:nonzero;fill:rgb(0%,0%,0%);fill-opacity:1;" d="M 23.957031 9.351562 C 23.382812 9.351562 22.917969 9.820312 22.917969 10.394531 L 22.917969 15.625 L 18.75 15.625 C 17.023438 15.625 15.625 17.023438 15.625 18.75 L 15.625 22.917969 L 5.207031 22.917969 C 3.484375 22.917969 2.082031 21.515625 2.082031 19.792969 L 2.082031 5.207031 C 2.082031 3.484375 3.484375 2.082031 5.207031 2.082031 L 14.628906 2.082031 C 15.203125 2.082031 15.667969 1.617188 15.667969 1.042969 C 15.667969 0.464844 15.203125 0 14.628906 0 L 5.207031 0 C 2.332031 0.00390625 0.00390625 2.332031 0 5.207031 L 0 19.792969 C 0.00390625 22.667969 2.332031 24.996094 5.207031 25 L 17.023438 25 C 18.40625 25.003906 19.734375 24.453125 20.707031 23.476562 L 23.472656 20.707031 C 24.453125 19.730469 25.003906 18.40625 25 17.023438 L 25 10.394531 C 25 9.820312 24.535156 9.351562 23.957031 9.351562 Z M 19.234375 22.003906 C 18.816406 22.417969 18.285156 22.707031 17.707031 22.835938 L 17.707031 18.75 C 17.707031 18.175781 18.175781 17.707031 18.75 17.707031 L 22.839844 17.707031 C 22.710938 18.285156 22.421875 18.8125 22.003906 19.234375 Z M 19.234375 22.003906 "/>
</g>
</svg>
