<?xml version="1.0" encoding="UTF-8"?>
<svg xmlns="http://www.w3.org/2000/svg" xmlns:xlink="http://www.w3.org/1999/xlink" width="24px" height="24px" viewBox="0 0 24 24" version="1.1">
<g id="surface1">
<path style=" stroke:none;fill-rule:nonzero;fill:rgb(0%,0%,0%);fill-opacity:1;" d="M 19 6 L 13 6 C 11.136719 6.007812 9.4375 7.050781 8.585938 8.703125 C 7.984375 8.25 7.253906 8.003906 6.5 8 C 4.566406 8 3 9.566406 3 11.5 C 3.003906 12.019531 3.121094 12.53125 3.351562 13 L 2 13 L 2 3 C 2 2.449219 1.550781 2 1 2 C 0.449219 2 0 2.449219 0 3 L 0 21 C 0 21.550781 0.449219 22 1 22 C 1.550781 22 2 21.550781 2 21 L 2 19 L 22 19 L 22 21 C 22 21.550781 22.449219 22 23 22 C 23.550781 22 24 21.550781 24 21 L 24 11 C 23.996094 8.238281 21.761719 6.003906 19 6 Z M 10 11 C 10 9.34375 11.34375 8 13 8 L 19 8 C 20.65625 8 22 9.34375 22 11 L 22 13 L 10 13 Z M 5 11.5 C 5 10.671875 5.671875 10 6.5 10 C 7.328125 10 8 10.671875 8 11.5 C 8 12.328125 7.328125 13 6.5 13 C 5.671875 13 5 12.328125 5 11.5 Z M 2 17 L 2 15 L 22 15 L 22 17 Z M 2 17 "/>
</g>
</svg>
