<?xml version="1.0" encoding="UTF-8"?>
<svg xmlns="http://www.w3.org/2000/svg" xmlns:xlink="http://www.w3.org/1999/xlink" width="24px" height="24px" viewBox="0 0 24 24" version="1.1">
<g id="surface1">
<path style=" stroke:none;fill-rule:nonzero;fill:rgb(0%,0%,0%);fill-opacity:1;" d="M 23 22 L 22 22 L 22 14 C 21.996094 11.238281 19.761719 9.003906 17 9 L 13 9 L 13 6.039062 C 13.910156 5.640625 14.5 4.742188 14.5 3.75 C 14.230469 2.472656 13.621094 1.289062 12.738281 0.328125 C 12.546875 0.121094 12.28125 0 12 0 C 11.71875 0 11.453125 0.121094 11.261719 0.328125 C 10.378906 1.289062 9.769531 2.472656 9.5 3.75 C 9.5 4.742188 10.089844 5.640625 11 6.039062 L 11 9 L 7 9 C 4.238281 9.003906 2.003906 11.238281 2 14 L 2 22 L 1 22 C 0.449219 22 0 22.449219 0 23 C 0 23.550781 0.449219 24 1 24 L 23 24 C 23.550781 24 24 23.550781 24 23 C 24 22.449219 23.550781 22 23 22 Z M 7 11 L 17 11 C 18.65625 11 20 12.34375 20 14 L 20 15.980469 C 19.0625 15.878906 18.5 15.28125 18.5 15 C 18.5 14.449219 18.050781 14 17.5 14 C 16.949219 14 16.5 14.449219 16.5 15 C 16.5 15.34375 15.816406 16 14.75 16 C 13.660156 16 13 15.304688 13 15 C 13 14.449219 12.550781 14 12 14 C 11.449219 14 11 14.449219 11 15 C 11 15.34375 10.316406 16 9.25 16 C 8.160156 16 7.5 15.304688 7.5 15 C 7.5 14.449219 7.050781 14 6.5 14 C 5.949219 14 5.5 14.449219 5.5 15 C 5.5 15.316406 4.921875 15.886719 4 15.980469 L 4 14 C 4 12.34375 5.34375 11 7 11 Z M 4 17.980469 C 4.917969 17.9375 5.796875 17.59375 6.5 17 C 8.089844 18.328125 10.402344 18.332031 12 17.015625 C 13.597656 18.332031 15.910156 18.328125 17.5 17 C 18.203125 17.59375 19.082031 17.9375 20 17.976562 L 20 22 L 4 22 Z M 4 17.980469 "/>
</g>
</svg>
