<?xml version="1.0" encoding="UTF-8"?>
<svg xmlns="http://www.w3.org/2000/svg" xmlns:xlink="http://www.w3.org/1999/xlink" width="25px" height="25px" viewBox="0 0 25 25" version="1.1">
<g id="surface1">
<path style=" stroke:none;fill-rule:nonzero;fill:rgb(0%,0%,0%);fill-opacity:1;" d="M 12.5 0 C 5.597656 0 0 5.597656 0 12.5 C 0 19.402344 5.597656 25 12.5 25 C 19.402344 25 25 19.402344 25 12.5 C 24.992188 5.597656 19.402344 0.0078125 12.5 0 Z M 12.5 22.917969 C 6.746094 22.917969 2.082031 18.253906 2.082031 12.5 C 2.082031 6.746094 6.746094 2.082031 12.5 2.082031 C 18.253906 2.082031 22.917969 6.746094 22.917969 12.5 C 22.910156 18.25 18.25 22.910156 12.5 22.917969 Z M 17.707031 12.5 C 17.707031 13.074219 17.242188 13.542969 16.667969 13.542969 L 13.542969 13.542969 L 13.542969 16.667969 C 13.542969 17.242188 13.074219 17.707031 12.5 17.707031 C 11.925781 17.707031 11.457031 17.242188 11.457031 16.667969 L 11.457031 13.542969 L 8.332031 13.542969 C 7.757812 13.542969 7.292969 13.074219 7.292969 12.5 C 7.292969 11.925781 7.757812 11.457031 8.332031 11.457031 L 11.457031 11.457031 L 11.457031 8.332031 C 11.457031 7.757812 11.925781 7.292969 12.5 7.292969 C 13.074219 7.292969 13.542969 7.757812 13.542969 8.332031 L 13.542969 11.457031 L 16.667969 11.457031 C 17.242188 11.457031 17.707031 11.925781 17.707031 12.5 Z M 17.707031 12.5 "/>
</g>
</svg>
