<?xml version="1.0" encoding="UTF-8"?>
<svg xmlns="http://www.w3.org/2000/svg" xmlns:xlink="http://www.w3.org/1999/xlink" width="25px" height="25px" viewBox="0 0 25 25" version="1.1">
<g id="surface1">
<path style=" stroke:none;fill-rule:nonzero;fill:rgb(0%,0%,0%);fill-opacity:1;" d="M 23.125 2.253906 C 21.9375 1.261719 20.375 0.847656 18.855469 1.128906 L 14.871094 1.851562 C 13.953125 2.019531 13.117188 2.492188 12.5 3.191406 C 11.878906 2.492188 11.042969 2.015625 10.121094 1.851562 L 6.144531 1.128906 C 4.625 0.847656 3.0625 1.261719 1.875 2.25 C 0.6875 3.238281 0 4.703125 0 6.25 L 0 17.492188 C 0 20.007812 1.800781 22.167969 4.277344 22.617188 L 10.824219 23.808594 C 11.933594 24.007812 13.066406 24.007812 14.175781 23.808594 L 20.730469 22.617188 C 23.203125 22.164062 25 20.007812 25 17.492188 L 25 6.25 C 25 4.703125 24.3125 3.238281 23.125 2.253906 Z M 11.457031 21.800781 C 11.371094 21.789062 11.285156 21.773438 11.195312 21.757812 L 4.648438 20.566406 C 3.164062 20.296875 2.082031 19.003906 2.082031 17.492188 L 2.082031 6.25 C 2.082031 4.523438 3.484375 3.125 5.207031 3.125 C 5.398438 3.125 5.585938 3.140625 5.769531 3.175781 L 9.75 3.90625 C 10.738281 4.085938 11.457031 4.945312 11.457031 5.949219 Z M 22.917969 17.492188 C 22.917969 19.003906 21.835938 20.296875 20.351562 20.566406 L 13.804688 21.757812 C 13.714844 21.773438 13.628906 21.789062 13.542969 21.800781 L 13.542969 5.949219 C 13.542969 4.941406 14.261719 4.082031 15.253906 3.898438 L 19.230469 3.171875 C 20.144531 3.003906 21.082031 3.253906 21.796875 3.847656 C 22.507812 4.441406 22.917969 5.324219 22.917969 6.25 Z M 22.917969 17.492188 "/>
</g>
</svg>
