<?xml version="1.0" encoding="UTF-8"?>
<svg xmlns="http://www.w3.org/2000/svg" xmlns:xlink="http://www.w3.org/1999/xlink" width="240px" height="240px" viewBox="0 0 240 240" version="1.1">
<g id="surface1">
<path style=" stroke:none;fill-rule:nonzero;fill:rgb(0%,0%,0%);fill-opacity:1;" d="M 230 160 C 224.476562 160 220 164.476562 220 170 L 220 190 C 220 206.570312 206.570312 220 190 220 L 170 220 C 164.476562 220 160 224.476562 160 230 C 160 235.523438 164.476562 240 170 240 L 190 240 C 217.601562 239.96875 239.96875 217.601562 240 190 L 240 170 C 240 164.476562 235.523438 160 230 160 Z M 230 160 "/>
<path style=" stroke:none;fill-rule:nonzero;fill:rgb(0%,0%,0%);fill-opacity:1;" d="M 10 80 C 15.523438 80 20 75.523438 20 70 L 20 50 C 20 33.429688 33.429688 20 50 20 L 70 20 C 75.523438 20 80 15.523438 80 10 C 80 4.476562 75.523438 0 70 0 L 50 0 C 22.398438 0.03125 0.03125 22.398438 0 50 L 0 70 C 0 75.523438 4.476562 80 10 80 Z M 10 80 "/>
<path style=" stroke:none;fill-rule:nonzero;fill:rgb(0%,0%,0%);fill-opacity:1;" d="M 70 220 L 50 220 C 33.429688 220 20 206.570312 20 190 L 20 170 C 20 164.476562 15.523438 160 10 160 C 4.476562 160 0 164.476562 0 170 L 0 190 C 0.03125 217.601562 22.398438 239.96875 50 240 L 70 240 C 75.523438 240 80 235.523438 80 230 C 80 224.476562 75.523438 220 70 220 Z M 70 220 "/>
<path style=" stroke:none;fill-rule:nonzero;fill:rgb(0%,0%,0%);fill-opacity:1;" d="M 190 0 L 170 0 C 164.476562 0 160 4.476562 160 10 C 160 15.523438 164.476562 20 170 20 L 190 20 C 206.570312 20 220 33.429688 220 50 L 220 70 C 220 75.523438 224.476562 80 230 80 C 235.523438 80 240 75.523438 240 70 L 240 50 C 239.96875 22.398438 217.601562 0.03125 190 0 Z M 190 0 "/>
<path style=" stroke:none;fill-rule:nonzero;fill:rgb(0%,0%,0%);fill-opacity:1;" d="M 120 110 C 142.089844 110 160 92.089844 160 70 C 160 47.910156 142.089844 30 120 30 C 97.910156 30 80 47.910156 80 70 C 80 92.089844 97.910156 110 120 110 Z M 120 50 C 131.046875 50 140 58.953125 140 70 C 140 81.046875 131.046875 90 120 90 C 108.953125 90 100 81.046875 100 70 C 100 58.953125 108.953125 50 120 50 Z M 120 50 "/>
<path style=" stroke:none;fill-rule:nonzero;fill:rgb(0%,0%,0%);fill-opacity:1;" d="M 180 200 C 185.523438 200 190 195.523438 190 190 C 189.96875 156.875 163.125 130.03125 130 130 L 110 130 C 76.875 130.03125 50.03125 156.875 50 190 C 50 195.523438 54.476562 200 60 200 C 65.523438 200 70 195.523438 70 190 C 70 167.910156 87.910156 150 110 150 L 130 150 C 152.089844 150 170 167.910156 170 190 C 170 195.523438 174.476562 200 180 200 Z M 180 200 "/>
</g>
</svg>
