<?xml version="1.0" encoding="UTF-8"?>
<svg xmlns="http://www.w3.org/2000/svg" xmlns:xlink="http://www.w3.org/1999/xlink" width="25px" height="25px" viewBox="0 0 25 25" version="1.1">
<g id="surface1">
<path style=" stroke:none;fill-rule:nonzero;fill:rgb(0%,0%,0%);fill-opacity:1;" d="M 7.292969 16.144531 C 7.292969 17.007812 6.59375 17.707031 5.730469 17.707031 C 4.867188 17.707031 4.167969 17.007812 4.167969 16.144531 C 4.167969 15.28125 4.867188 14.582031 5.730469 14.582031 C 6.59375 14.582031 7.292969 15.28125 7.292969 16.144531 Z M 7.292969 16.144531 "/>
<path style=" stroke:none;fill-rule:nonzero;fill:rgb(0%,0%,0%);fill-opacity:1;" d="M 19.792969 3.125 L 5.207031 3.125 C 2.332031 3.128906 0.00390625 5.457031 0 8.332031 L 0 16.667969 C 0.00390625 19.542969 2.332031 21.871094 5.207031 21.875 L 19.792969 21.875 C 22.667969 21.871094 24.996094 19.542969 25 16.667969 L 25 8.332031 C 24.996094 5.457031 22.667969 3.128906 19.792969 3.125 Z M 5.207031 5.207031 L 19.792969 5.207031 C 21.515625 5.207031 22.917969 6.609375 22.917969 8.332031 L 2.082031 8.332031 C 2.082031 6.609375 3.484375 5.207031 5.207031 5.207031 Z M 19.792969 19.792969 L 5.207031 19.792969 C 3.484375 19.792969 2.082031 18.390625 2.082031 16.667969 L 2.082031 10.417969 L 22.917969 10.417969 L 22.917969 16.667969 C 22.917969 18.390625 21.515625 19.792969 19.792969 19.792969 Z M 19.792969 19.792969 "/>
</g>
</svg>
