<?xml version="1.0" encoding="UTF-8"?>
<svg xmlns="http://www.w3.org/2000/svg" xmlns:xlink="http://www.w3.org/1999/xlink" width="25px" height="25px" viewBox="0 0 25 25" version="1.1">
<g id="surface1">
<path style=" stroke:none;fill-rule:nonzero;fill:rgb(0%,0%,0%);fill-opacity:1;" d="M 21.875 4.167969 L 18.644531 4.167969 C 18.148438 1.742188 16.015625 0.00390625 13.542969 0 L 11.457031 0 C 8.984375 0.00390625 6.851562 1.742188 6.355469 4.167969 L 3.125 4.167969 C 2.550781 4.167969 2.082031 4.632812 2.082031 5.207031 C 2.082031 5.785156 2.550781 6.25 3.125 6.25 L 4.167969 6.25 L 4.167969 19.792969 C 4.171875 22.667969 6.5 24.996094 9.375 25 L 15.625 25 C 18.5 24.996094 20.828125 22.667969 20.832031 19.792969 L 20.832031 6.25 L 21.875 6.25 C 22.449219 6.25 22.917969 5.785156 22.917969 5.207031 C 22.917969 4.632812 22.449219 4.167969 21.875 4.167969 Z M 11.457031 2.082031 L 13.542969 2.082031 C 14.867188 2.085938 16.046875 2.917969 16.488281 4.167969 L 8.511719 4.167969 C 8.953125 2.917969 10.132812 2.085938 11.457031 2.082031 Z M 18.75 19.792969 C 18.75 21.515625 17.351562 22.917969 15.625 22.917969 L 9.375 22.917969 C 7.648438 22.917969 6.25 21.515625 6.25 19.792969 L 6.25 6.25 L 18.75 6.25 Z M 18.75 19.792969 "/>
<path style=" stroke:none;fill-rule:nonzero;fill:rgb(0%,0%,0%);fill-opacity:1;" d="M 10.417969 18.75 C 10.992188 18.75 11.457031 18.285156 11.457031 17.707031 L 11.457031 11.457031 C 11.457031 10.882812 10.992188 10.417969 10.417969 10.417969 C 9.839844 10.417969 9.375 10.882812 9.375 11.457031 L 9.375 17.707031 C 9.375 18.285156 9.839844 18.75 10.417969 18.75 Z M 10.417969 18.75 "/>
<path style=" stroke:none;fill-rule:nonzero;fill:rgb(0%,0%,0%);fill-opacity:1;" d="M 14.582031 18.75 C 15.160156 18.75 15.625 18.285156 15.625 17.707031 L 15.625 11.457031 C 15.625 10.882812 15.160156 10.417969 14.582031 10.417969 C 14.007812 10.417969 13.542969 10.882812 13.542969 11.457031 L 13.542969 17.707031 C 13.542969 18.285156 14.007812 18.75 14.582031 18.75 Z M 14.582031 18.75 "/>
</g>
</svg>
