<?xml version="1.0" encoding="UTF-8"?>
<svg xmlns="http://www.w3.org/2000/svg" xmlns:xlink="http://www.w3.org/1999/xlink" width="24px" height="24px" viewBox="0 0 24 24" version="1.1">
<g id="surface1">
<path style=" stroke:none;fill-rule:nonzero;fill:rgb(0%,0%,0%);fill-opacity:1;" d="M 17 24 C 13.132812 24 10 20.867188 10 17 C 10 13.132812 13.132812 10 17 10 C 20.867188 10 24 13.132812 24 17 C 23.996094 20.863281 20.863281 23.996094 17 24 Z M 17 12 C 14.238281 12 12 14.238281 12 17 C 12 19.761719 14.238281 22 17 22 C 19.761719 22 22 19.761719 22 17 C 21.996094 14.238281 19.761719 12.003906 17 12 Z M 18.707031 18.707031 C 19.097656 18.316406 19.097656 17.683594 18.707031 17.292969 L 18 16.585938 L 18 15 C 18 14.449219 17.550781 14 17 14 C 16.449219 14 16 14.449219 16 15 L 16 17 C 16 17.265625 16.105469 17.519531 16.292969 17.707031 L 17.292969 18.707031 C 17.683594 19.097656 18.316406 19.097656 18.707031 18.707031 Z M 2 23 C 2.003906 19.222656 4.5625 15.921875 8.222656 14.976562 C 8.761719 14.855469 9.097656 14.316406 8.976562 13.777344 C 8.855469 13.238281 8.316406 12.902344 7.777344 13.023438 C 3.191406 14.148438 -0.0273438 18.277344 0 23 C 0 23.550781 0.449219 24 1 24 C 1.550781 24 2 23.550781 2 23 Z M 8.472656 11 C 5.4375 11 2.972656 8.539062 2.972656 5.5 C 2.972656 2.460938 5.4375 0 8.472656 0 C 11.511719 0 13.972656 2.460938 13.972656 5.5 C 13.96875 8.535156 11.511719 10.996094 8.472656 11 Z M 8.472656 2 C 6.539062 2 4.972656 3.566406 4.972656 5.5 C 4.972656 7.433594 6.539062 9 8.472656 9 C 10.40625 9 11.972656 7.433594 11.972656 5.5 C 11.972656 3.566406 10.40625 2 8.472656 2 Z M 8.472656 2 "/>
</g>
</svg>
