<?xml version="1.0" encoding="UTF-8"?>
<svg xmlns="http://www.w3.org/2000/svg" xmlns:xlink="http://www.w3.org/1999/xlink" width="25px" height="25px" viewBox="0 0 25 25" version="1.1">
<g id="surface1">
<path style=" stroke:none;fill-rule:nonzero;fill:rgb(0%,0%,0%);fill-opacity:1;" d="M 16.042969 10.292969 L 11.261719 5.511719 C 10.855469 5.105469 10.199219 5.105469 9.792969 5.511719 C 9.59375 5.707031 9.484375 5.972656 9.484375 6.25 C 9.484375 6.527344 9.59375 6.792969 9.792969 6.988281 L 14.582031 11.761719 C 14.78125 11.957031 14.890625 12.222656 14.890625 12.5 C 14.890625 12.777344 14.78125 13.042969 14.582031 13.238281 L 9.792969 18.011719 C 9.382812 18.414062 9.382812 19.074219 9.785156 19.484375 C 10.191406 19.894531 10.851562 19.894531 11.261719 19.488281 L 16.042969 14.707031 C 17.261719 13.488281 17.261719 11.511719 16.042969 10.292969 Z M 16.042969 10.292969 "/>
</g>
</svg>
