<?xml version="1.0" encoding="UTF-8"?>
<svg xmlns="http://www.w3.org/2000/svg" xmlns:xlink="http://www.w3.org/1999/xlink" width="24px" height="24px" viewBox="0 0 24 24" version="1.1">
<g id="surface1">
<path style=" stroke:none;fill-rule:nonzero;fill:rgb(0%,0%,0%);fill-opacity:1;" d="M 12 12 C 15.3125 12 18 9.3125 18 6 C 18 2.6875 15.3125 0 12 0 C 8.6875 0 6 2.6875 6 6 C 6.003906 9.3125 8.6875 11.996094 12 12 Z M 12 2 C 14.210938 2 16 3.789062 16 6 C 16 8.210938 14.210938 10 12 10 C 9.789062 10 8 8.210938 8 6 C 8 3.789062 9.789062 2 12 2 Z M 12 2 "/>
<path style=" stroke:none;fill-rule:nonzero;fill:rgb(0%,0%,0%);fill-opacity:1;" d="M 12 14 C 7.03125 14.003906 3.003906 18.03125 3 23 C 3 23.550781 3.449219 24 4 24 C 4.550781 24 5 23.550781 5 23 C 5 19.132812 8.132812 16 12 16 C 15.867188 16 19 19.132812 19 23 C 19 23.550781 19.449219 24 20 24 C 20.550781 24 21 23.550781 21 23 C 20.996094 18.03125 16.96875 14.003906 12 14 Z M 12 14 "/>
</g>
</svg>
