<?xml version="1.0" encoding="UTF-8"?>
<svg xmlns="http://www.w3.org/2000/svg" xmlns:xlink="http://www.w3.org/1999/xlink" width="25px" height="25px" viewBox="0 0 25 25" version="1.1">
<g id="surface1">
<path style=" stroke:none;fill-rule:nonzero;fill:rgb(0%,0%,0%);fill-opacity:1;" d="M 12.5 8.332031 C 10.199219 8.332031 8.332031 10.199219 8.332031 12.5 C 8.332031 14.800781 10.199219 16.667969 12.5 16.667969 C 14.800781 16.667969 16.667969 14.800781 16.667969 12.5 C 16.667969 10.199219 14.800781 8.332031 12.5 8.332031 Z M 12.5 14.582031 C 11.347656 14.582031 10.417969 13.652344 10.417969 12.5 C 10.417969 11.347656 11.347656 10.417969 12.5 10.417969 C 13.652344 10.417969 14.582031 11.347656 14.582031 12.5 C 14.582031 13.652344 13.652344 14.582031 12.5 14.582031 Z M 12.5 14.582031 "/>
<path style=" stroke:none;fill-rule:nonzero;fill:rgb(0%,0%,0%);fill-opacity:1;" d="M 22.179688 14.480469 L 21.71875 14.210938 C 21.925781 13.078125 21.925781 11.917969 21.71875 10.785156 L 22.179688 10.519531 C 23.675781 9.65625 24.191406 7.742188 23.328125 6.246094 C 22.464844 4.753906 20.550781 4.238281 19.054688 5.101562 L 18.59375 5.371094 C 17.71875 4.621094 16.710938 4.042969 15.625 3.660156 L 15.625 3.125 C 15.625 1.398438 14.226562 0 12.5 0 C 10.773438 0 9.375 1.398438 9.375 3.125 L 9.375 3.660156 C 8.289062 4.042969 7.28125 4.625 6.410156 5.375 L 5.941406 5.105469 C 4.445312 4.242188 2.535156 4.753906 1.671875 6.25 C 0.808594 7.746094 1.320312 9.65625 2.816406 10.519531 L 3.28125 10.789062 C 3.070312 11.921875 3.070312 13.082031 3.28125 14.214844 L 2.816406 14.480469 C 1.320312 15.34375 0.808594 17.257812 1.671875 18.753906 C 2.535156 20.246094 4.445312 20.761719 5.941406 19.898438 L 6.40625 19.628906 C 7.28125 20.378906 8.289062 20.957031 9.375 21.339844 L 9.375 21.875 C 9.375 23.601562 10.773438 25 12.5 25 C 14.226562 25 15.625 23.601562 15.625 21.875 L 15.625 21.339844 C 16.710938 20.957031 17.71875 20.375 18.589844 19.625 L 19.058594 19.894531 C 20.554688 20.757812 22.464844 20.246094 23.328125 18.75 C 24.191406 17.253906 23.679688 15.339844 22.183594 14.476562 Z M 19.527344 10.546875 C 19.878906 11.824219 19.878906 13.175781 19.527344 14.453125 C 19.402344 14.910156 19.597656 15.394531 20.011719 15.632812 L 21.140625 16.285156 C 21.636719 16.570312 21.808594 17.210938 21.519531 17.707031 C 21.234375 18.207031 20.597656 18.378906 20.097656 18.089844 L 18.964844 17.433594 C 18.554688 17.195312 18.035156 17.269531 17.699219 17.605469 C 16.773438 18.554688 15.605469 19.230469 14.324219 19.558594 C 13.863281 19.679688 13.539062 20.09375 13.539062 20.570312 L 13.539062 21.875 C 13.539062 22.449219 13.074219 22.917969 12.5 22.917969 C 11.921875 22.917969 11.457031 22.449219 11.457031 21.875 L 11.457031 20.570312 C 11.457031 20.09375 11.136719 19.679688 10.675781 19.5625 C 9.390625 19.230469 8.222656 18.550781 7.296875 17.605469 C 6.964844 17.265625 6.445312 17.195312 6.03125 17.433594 L 4.902344 18.085938 C 4.582031 18.273438 4.179688 18.277344 3.859375 18.089844 C 3.535156 17.902344 3.332031 17.558594 3.335938 17.183594 C 3.335938 16.8125 3.535156 16.464844 3.863281 16.28125 L 4.992188 15.628906 C 5.402344 15.390625 5.601562 14.90625 5.472656 14.449219 C 5.121094 13.171875 5.121094 11.820312 5.472656 10.542969 C 5.597656 10.085938 5.398438 9.601562 4.988281 9.367188 L 3.859375 8.714844 C 3.363281 8.425781 3.191406 7.789062 3.480469 7.292969 C 3.765625 6.792969 4.402344 6.621094 4.902344 6.910156 L 6.035156 7.5625 C 6.445312 7.800781 6.964844 7.734375 7.296875 7.394531 C 8.226562 6.449219 9.394531 5.773438 10.675781 5.441406 C 11.136719 5.324219 11.460938 4.90625 11.457031 4.429688 L 11.457031 3.125 C 11.457031 2.550781 11.925781 2.082031 12.5 2.082031 C 13.074219 2.082031 13.542969 2.550781 13.542969 3.125 L 13.542969 4.429688 C 13.542969 4.90625 13.863281 5.320312 14.324219 5.4375 C 15.605469 5.769531 16.777344 6.449219 17.703125 7.394531 C 18.035156 7.734375 18.554688 7.804688 18.96875 7.566406 L 20.097656 6.914062 C 20.417969 6.726562 20.820312 6.722656 21.140625 6.910156 C 21.464844 7.097656 21.667969 7.441406 21.664062 7.816406 C 21.664062 8.1875 21.464844 8.535156 21.136719 8.71875 L 20.007812 9.371094 C 19.601562 9.609375 19.402344 10.089844 19.527344 10.546875 Z M 19.527344 10.546875 "/>
</g>
</svg>
