<?xml version="1.0" encoding="UTF-8"?>
<svg xmlns="http://www.w3.org/2000/svg" xmlns:xlink="http://www.w3.org/1999/xlink" width="120px" height="120px" viewBox="0 0 120 120" version="1.1">
<g id="surface1">
<path style=" stroke:none;fill-rule:nonzero;fill:rgb(0%,0%,0%);fill-opacity:1;" d="M 115 80 C 112.238281 80 110 82.238281 110 85 L 110 95 C 110 103.285156 103.285156 110 95 110 L 85 110 C 82.238281 110 80 112.238281 80 115 C 80 117.761719 82.238281 120 85 120 L 95 120 C 108.800781 119.984375 119.984375 108.800781 120 95 L 120 85 C 120 82.238281 117.761719 80 115 80 Z M 115 80 "/>
<path style=" stroke:none;fill-rule:nonzero;fill:rgb(0%,0%,0%);fill-opacity:1;" d="M 5 40 C 7.761719 40 10 37.761719 10 35 L 10 25 C 10 16.714844 16.714844 10 25 10 L 35 10 C 37.761719 10 40 7.761719 40 5 C 40 2.238281 37.761719 0 35 0 L 25 0 C 11.199219 0.015625 0.015625 11.199219 0 25 L 0 35 C 0 37.761719 2.238281 40 5 40 Z M 5 40 "/>
<path style=" stroke:none;fill-rule:nonzero;fill:rgb(0%,0%,0%);fill-opacity:1;" d="M 35 110 L 25 110 C 16.714844 110 10 103.285156 10 95 L 10 85 C 10 82.238281 7.761719 80 5 80 C 2.238281 80 0 82.238281 0 85 L 0 95 C 0.015625 108.800781 11.199219 119.984375 25 120 L 35 120 C 37.761719 120 40 117.761719 40 115 C 40 112.238281 37.761719 110 35 110 Z M 35 110 "/>
<path style=" stroke:none;fill-rule:nonzero;fill:rgb(0%,0%,0%);fill-opacity:1;" d="M 95 0 L 85 0 C 82.238281 0 80 2.238281 80 5 C 80 7.761719 82.238281 10 85 10 L 95 10 C 103.285156 10 110 16.714844 110 25 L 110 35 C 110 37.761719 112.238281 40 115 40 C 117.761719 40 120 37.761719 120 35 L 120 25 C 119.984375 11.199219 108.800781 0.015625 95 0 Z M 95 0 "/>
<path style=" stroke:none;fill-rule:nonzero;fill:rgb(0%,0%,0%);fill-opacity:1;" d="M 60 55 C 71.046875 55 80 46.046875 80 35 C 80 23.953125 71.046875 15 60 15 C 48.953125 15 40 23.953125 40 35 C 40 46.046875 48.953125 55 60 55 Z M 60 25 C 65.523438 25 70 29.476562 70 35 C 70 40.523438 65.523438 45 60 45 C 54.476562 45 50 40.523438 50 35 C 50 29.476562 54.476562 25 60 25 Z M 60 25 "/>
<path style=" stroke:none;fill-rule:nonzero;fill:rgb(0%,0%,0%);fill-opacity:1;" d="M 90 100 C 92.761719 100 95 97.761719 95 95 C 94.984375 78.4375 81.5625 65.015625 65 65 L 55 65 C 38.4375 65.015625 25.015625 78.4375 25 95 C 25 97.761719 27.238281 100 30 100 C 32.761719 100 35 97.761719 35 95 C 35 83.953125 43.953125 75 55 75 L 65 75 C 76.046875 75 85 83.953125 85 95 C 85 97.761719 87.238281 100 90 100 Z M 90 100 "/>
</g>
</svg>
