<?xml version="1.0" encoding="UTF-8"?>
<svg xmlns="http://www.w3.org/2000/svg" xmlns:xlink="http://www.w3.org/1999/xlink" width="24px" height="24px" viewBox="0 0 24 24" version="1.1">
<g id="surface1">
<path style=" stroke:none;fill-rule:nonzero;fill:rgb(0%,0%,0%);fill-opacity:1;" d="M 23 11 L 21 11 L 21 9 C 21 8.449219 20.550781 8 20 8 C 19.449219 8 19 8.449219 19 9 L 19 11 L 17 11 C 16.449219 11 16 11.449219 16 12 C 16 12.550781 16.449219 13 17 13 L 19 13 L 19 15 C 19 15.550781 19.449219 16 20 16 C 20.550781 16 21 15.550781 21 15 L 21 13 L 23 13 C 23.550781 13 24 12.550781 24 12 C 24 11.449219 23.550781 11 23 11 Z M 23 11 "/>
<path style=" stroke:none;fill-rule:nonzero;fill:rgb(0%,0%,0%);fill-opacity:1;" d="M 9 12 C 12.3125 12 15 9.3125 15 6 C 15 2.6875 12.3125 0 9 0 C 5.6875 0 3 2.6875 3 6 C 3.003906 9.3125 5.6875 11.996094 9 12 Z M 9 2 C 11.210938 2 13 3.789062 13 6 C 13 8.210938 11.210938 10 9 10 C 6.789062 10 5 8.210938 5 6 C 5 3.789062 6.789062 2 9 2 Z M 9 2 "/>
<path style=" stroke:none;fill-rule:nonzero;fill:rgb(0%,0%,0%);fill-opacity:1;" d="M 9 14 C 4.03125 14.003906 0.00390625 18.03125 0 23 C 0 23.550781 0.449219 24 1 24 C 1.550781 24 2 23.550781 2 23 C 2 19.132812 5.132812 16 9 16 C 12.867188 16 16 19.132812 16 23 C 16 23.550781 16.449219 24 17 24 C 17.550781 24 18 23.550781 18 23 C 17.996094 18.03125 13.96875 14.003906 9 14 Z M 9 14 "/>
</g>
</svg>
