<?xml version="1.0" encoding="UTF-8"?>
<svg xmlns="http://www.w3.org/2000/svg" xmlns:xlink="http://www.w3.org/1999/xlink" width="24px" height="24px" viewBox="0 0 24 24" version="1.1">
<g id="surface1">
<path style=" stroke:none;fill-rule:nonzero;fill:rgb(0%,0%,0%);fill-opacity:1;" d="M 9 12 C 12.3125 12 15 9.3125 15 6 C 15 2.6875 12.3125 0 9 0 C 5.6875 0 3 2.6875 3 6 C 3.003906 9.3125 5.6875 11.996094 9 12 Z M 9 2 C 11.210938 2 13 3.789062 13 6 C 13 8.210938 11.210938 10 9 10 C 6.789062 10 5 8.210938 5 6 C 5 3.789062 6.789062 2 9 2 Z M 18 23 C 18 23.550781 17.550781 24 17 24 C 16.449219 24 16 23.550781 16 23 C 16 19.132812 12.867188 16 9 16 C 5.132812 16 2 19.132812 2 23 C 2 23.550781 1.550781 24 1 24 C 0.449219 24 0 23.550781 0 23 C 0 18.03125 4.03125 14 9 14 C 13.96875 14 18 18.03125 18 23 Z M 23.707031 14.292969 C 23.96875 14.542969 24.070312 14.914062 23.980469 15.265625 C 23.886719 15.613281 23.613281 15.886719 23.265625 15.980469 C 22.914062 16.070312 22.542969 15.96875 22.292969 15.707031 L 20.5 13.914062 L 18.707031 15.707031 C 18.316406 16.085938 17.691406 16.082031 17.304688 15.695312 C 16.917969 15.308594 16.914062 14.683594 17.292969 14.292969 L 19.085938 12.5 L 17.292969 10.707031 C 16.914062 10.316406 16.917969 9.691406 17.304688 9.304688 C 17.691406 8.917969 18.316406 8.914062 18.707031 9.292969 L 20.5 11.085938 L 22.292969 9.292969 C 22.683594 8.914062 23.308594 8.917969 23.695312 9.304688 C 24.082031 9.691406 24.085938 10.316406 23.707031 10.707031 L 21.914062 12.5 Z M 23.707031 14.292969 "/>
</g>
</svg>
